<?xml version="1.0" encoding="UTF-8" standalone="no"?>
<!-- Uploaded to: SVG Repo, www.svgrepo.com, Generator: SVG Repo Mixer Tools -->

<svg
   width="36"
   height="36"
   version="1.1"
   id="svg1"
   sodipodi:docname="dark_theme_moon.svg"
   inkscape:version="1.3 (0e150ed6c4, 2023-07-21)"
   xmlns:inkscape="http://www.inkscape.org/namespaces/inkscape"
   xmlns:sodipodi="http://sodipodi.sourceforge.net/DTD/sodipodi-0.dtd"
   xmlns="http://www.w3.org/2000/svg"
   xmlns:svg="http://www.w3.org/2000/svg">
  <defs
     id="defs1" />
  <sodipodi:namedview
     id="namedview1"
     pagecolor="#ffffff"
     bordercolor="#000000"
     borderopacity="0.25"
     inkscape:showpageshadow="2"
     inkscape:pageopacity="0.0"
     inkscape:pagecheckerboard="0"
     inkscape:deskcolor="#d1d1d1"
     inkscape:zoom="3.8596245"
     inkscape:cx="38.604792"
     inkscape:cy="50.263957"
     inkscape:window-width="1350"
     inkscape:window-height="720"
     inkscape:window-x="351"
     inkscape:window-y="31"
     inkscape:window-maximized="0"
     inkscape:current-layer="svg1" />
  <g
     id="Lager_94"
     data-name="Lager 94"
     transform="matrix(1.12407,0,0,1.1249992,0.02968529,0)">
    <path
       id="Path_70"
       data-name="Path 70"
       d="M 12.516,4.509 A 12,12 0 0 0 22.3,19.881 12.317,12.317 0 0 0 24,20 11.984,11.984 0 0 0 27.49,19.486 12.1,12.1 0 0 1 17.527,27.907 12.679,12.679 0 0 1 16,28 12,12 0 0 1 12.516,4.509 M 16,0 A 16.5,16.5 0 0 0 13.788,0.15 16,16 0 0 0 16,32 16.526,16.526 0 0 0 18.01,31.877 16.04,16.04 0 0 0 31.85,18.212 16.516,16.516 0 0 0 32,15.944 1.957,1.957 0 0 0 30,14 2.046,2.046 0 0 0 28.77,14.413 7.942,7.942 0 0 1 24,16 8.35,8.35 0 0 1 22.85,15.92 7.995,7.995 0 0 1 17.586,3.22 2.064,2.064 0 0 0 16.056,0 Z"
       fill="#ffffff" />
  </g>
</svg>
